<?xml version="1.0" standalone="no"?>
<!DOCTYPE svg PUBLIC "-//W3C//DTD SVG 20010904//EN"
 "http://www.w3.org/TR/2001/REC-SVG-20010904/DTD/svg10.dtd">
<svg version="1.0" xmlns="http://www.w3.org/2000/svg"
 width="3072.000000pt" height="1919.000000pt" viewBox="0 0 3072.000000 1919.000000"
 preserveAspectRatio="xMidYMid meet">

<g transform="translate(0.000000,1919.000000) scale(0.100000,-0.100000)"
fill="#000000" stroke="none">
<path d="M20 9595 l0 -9595 15345 0 15345 0 0 9595 0 9595 -15345 0 -15345 0
0 -9595z m30375 -5 l0 -9295 -15027 -3 -15028 -2 0 9300 0 9300 15028 -2
15027 -3 0 -9295z"/>
<path d="M1210 15875 l0 -1985 14065 0 14065 0 0 1985 0 1985 -14065 0 -14065
0 0 -1985z"/>
<path d="M17285 12944 c-462 -46 -776 -129 -1102 -292 -514 -258 -882 -693
-1062 -1255 -238 -746 -49 -1328 609 -1874 167 -138 310 -239 785 -554 315
-208 431 -296 551 -414 98 -96 160 -183 196 -274 31 -79 31 -223 0 -301 -89
-225 -382 -377 -810 -421 -413 -43 -875 82 -1382 374 -96 55 -278 174 -373
243 -24 17 -41 24 -47 18 -5 -5 -200 -282 -434 -614 l-424 -605 47 -33 c253
-183 704 -385 1130 -507 492 -140 961 -209 1521 -222 282 -6 431 3 612 37 965
184 1784 941 1973 1822 33 152 44 377 26 522 -50 393 -268 759 -649 1088 -205
176 -398 312 -862 606 -357 225 -483 316 -601 432 -126 124 -169 205 -169 316
0 188 118 383 290 481 185 105 560 155 775 104 227 -55 575 -236 903 -470 63
-45 115 -81 117 -81 12 0 1006 1053 999 1060 -31 27 -191 139 -291 202 -404
256 -867 448 -1303 542 -260 56 -376 68 -690 71 -162 2 -313 1 -335 -1z"/>
<path d="M4730 12776 c0 -107 -1 -106 88 -106 73 0 241 -24 346 -49 447 -106
717 -378 821 -825 12 -50 545 -5267 545 -5332 0 -12 117 -14 877 -12 l876 3
1859 3190 c1022 1755 1863 3198 1869 3208 9 16 -35 17 -864 17 l-874 0 -1123
-1930 c-619 -1061 -1125 -1928 -1127 -1927 -1 2 -88 856 -193 1897 -104 1042
-193 1910 -196 1928 l-5 32 -1449 0 -1450 0 0 -94z"/>
<path d="M11921 9679 c-568 -1755 -1036 -3199 -1038 -3210 -5 -19 11 -19 842
-17 l847 3 1039 3205 c571 1763 1039 3206 1039 3208 0 1 -381 2 -847 2 l-848
0 -1034 -3191z"/>
<path d="M20740 9713 c-872 -1671 -1611 -3088 -1643 -3150 l-58 -113 918 0
918 0 240 480 240 480 1072 0 c590 0 1073 -1 1073 -2 0 -2 16 -207 35 -457 19
-250 35 -465 35 -477 l0 -24 850 0 850 0 -5 53 c-7 63 -475 6204 -475 6230 0
16 -65 17 -1233 17 l-1233 0 -1584 -3037z m2575 122 c52 -687 98 -1278 101
-1312 l6 -63 -766 0 c-421 0 -766 4 -766 8 0 5 298 607 662 1338 460 923 663
1321 665 1304 2 -14 46 -587 98 -1275z"/>
<path d="M25418 12739 c-117 -18 -210 -88 -260 -196 -41 -87 -47 -161 -20
-249 32 -102 81 -160 175 -208 70 -36 84 -40 154 -39 146 1 254 66 315 191 30
60 33 75 33 157 0 82 -3 97 -33 157 -38 78 -83 120 -167 159 -67 30 -126 39
-197 28z m188 -82 c101 -51 159 -147 158 -262 0 -261 -298 -390 -497 -215 -19
16 -46 57 -61 90 -71 158 0 337 159 400 70 28 171 23 241 -13z"/>
<path d="M25330 12381 l0 -212 28 3 c27 3 27 3 30 91 l3 87 35 0 c43 0 70 -26
116 -116 30 -59 36 -64 66 -64 17 0 32 3 32 6 0 15 -86 147 -105 162 l-22 17
37 16 c36 16 70 66 70 104 0 32 -31 82 -58 95 -15 7 -73 15 -129 18 l-103 5 0
-212z m210 129 c54 -54 -4 -110 -112 -110 l-38 0 0 65 0 65 65 0 c52 0 69 -4
85 -20z"/>
<path d="M28684 2259 c-117 -15 -217 -87 -270 -195 -25 -52 -29 -70 -29 -149
0 -82 3 -97 33 -157 38 -77 92 -130 171 -167 47 -22 70 -26 141 -26 72 0 94 4
147 29 73 33 144 104 176 174 17 38 22 66 22 142 0 82 -4 103 -26 150 -35 76
-77 121 -147 158 -67 36 -145 50 -218 41z m156 -73 c114 -48 183 -152 183
-276 0 -212 -221 -354 -413 -264 -73 34 -107 67 -141 139 -54 113 -35 241 49
328 85 88 216 118 322 73z"/>
<path d="M28590 1900 l0 -210 30 0 30 0 0 90 0 90 29 0 c42 0 73 -30 115 -110
35 -66 39 -70 72 -70 18 0 34 3 34 6 0 12 -82 143 -101 160 -19 17 -19 18 11
30 43 19 72 70 66 118 -9 77 -66 105 -213 106 l-73 0 0 -210z m202 133 c11 -9
18 -30 18 -50 0 -29 -5 -36 -35 -49 -19 -7 -55 -14 -80 -14 l-45 0 0 65 0 65
62 0 c43 0 67 -5 80 -17z"/>
</g>
</svg>
