<?xml version="1.0" standalone="no"?>
<!DOCTYPE svg PUBLIC "-//W3C//DTD SVG 20010904//EN"
 "http://www.w3.org/TR/2001/REC-SVG-20010904/DTD/svg10.dtd">
<svg version="1.0" xmlns="http://www.w3.org/2000/svg"
 width="1000.000000pt" height="660.000000pt" viewBox="0 0 1000.000000 660.000000"
 preserveAspectRatio="xMidYMid meet">

<g transform="translate(0.000000,660.000000) scale(0.100000,-0.100000)"
fill="#000000" stroke="none">
<path d="M3580 5080 c-639 -88 -1180 -471 -1463 -1036 -82 -163 -143 -352
-179 -554 -18 -101 -18 -479 0 -580 87 -486 319 -887 682 -1179 287 -231 616
-369 985 -412 157 -18 442 -6 593 25 216 46 416 123 597 230 108 64 216 146
209 157 -3 5 0 8 8 7 7 -2 12 3 11 9 -2 7 1 12 6 10 11 -3 158 123 165 143 4
8 35 47 71 85 86 94 95 104 95 110 0 4 61 96 70 105 10 10 50 96 50 108 0 6 4
12 8 12 12 0 63 101 56 111 -3 5 -1 9 4 9 10 0 38 60 58 125 7 22 20 60 29 85
9 25 17 54 18 65 0 11 4 25 8 30 4 6 13 44 18 85 6 41 17 120 25 175 19 130
19 225 1 393 -19 166 -33 234 -48 225 -7 -4 -8 4 -4 25 4 18 3 32 -1 32 -5 0
-8 16 -9 35 -1 19 -10 47 -21 62 -10 15 -20 43 -20 60 -1 39 -9 56 -24 47 -6
-4 -8 1 -3 15 3 11 2 21 -3 21 -5 0 -9 6 -9 13 0 20 -44 107 -54 107 -5 0 -9
8 -10 18 -1 27 -76 157 -89 154 -6 -1 -9 2 -5 8 3 5 1 15 -4 22 -6 7 -31 40
-55 73 -61 83 -165 200 -204 228 -17 13 -30 26 -27 29 3 2 -14 20 -36 39 -23
19 -59 51 -81 72 -104 98 -375 246 -570 311 -204 68 -326 88 -568 91 -118 2
-244 0 -280 -5z"/>
</g>
</svg>
