<?xml version="1.0" standalone="no"?>
<!DOCTYPE svg PUBLIC "-//W3C//DTD SVG 20010904//EN"
 "http://www.w3.org/TR/2001/REC-SVG-20010904/DTD/svg10.dtd">
<svg version="1.0" xmlns="http://www.w3.org/2000/svg"
 width="400.000000pt" height="378.000000pt" viewBox="0 0 400.000000 378.000000"
 preserveAspectRatio="xMidYMid meet">

<g transform="translate(0.000000,378.000000) scale(0.100000,-0.100000)"
fill="#000000" stroke="none">
<path d="M1864 3179 c-364 -35 -660 -220 -734 -458 -68 -218 31 -459 248 -601
150 -98 323 -147 553 -157 358 -14 636 77 811 265 103 112 143 226 136 388 -3
82 -8 100 -42 168 -104 212 -374 361 -715 395 -113 12 -137 12 -257 0z m291
-40 c151 -19 305 -70 434 -146 l44 -26 -24 -12 c-75 -38 -239 -45 -324 -12
-22 8 -67 25 -100 38 -48 19 -79 24 -155 24 -88 0 -100 -3 -155 -32 -33 -18
-99 -41 -147 -52 -98 -21 -125 -18 -268 25 -97 30 -97 29 20 89 104 52 216 84
390 109 56 8 200 5 285 -5z m65 -214 c145 -58 289 -59 416 -5 l45 20 49 -52
c50 -53 110 -159 110 -197 0 -14 -8 -22 -27 -27 -55 -12 -229 -66 -285 -89
l-58 -23 -156 135 c-86 74 -173 145 -193 158 -77 51 -122 43 -233 -41 -61 -46
-78 -54 -114 -54 -24 0 -46 5 -49 10 -9 14 83 119 134 154 100 69 205 72 361
11z m-755 -22 c97 -31 119 -34 190 -30 44 2 89 8 100 13 13 5 3 -12 -27 -48
-27 -30 -48 -62 -48 -71 0 -36 93 -67 141 -48 15 5 58 33 97 61 81 59 122 69
169 43 57 -32 372 -307 379 -331 8 -27 -20 -62 -49 -62 -11 0 -52 29 -92 65
-68 60 -95 77 -95 57 0 -4 29 -37 65 -72 70 -70 80 -98 43 -124 -36 -26 -56
-19 -117 39 -32 30 -61 55 -64 55 -17 0 -3 -26 38 -72 51 -57 57 -84 19 -98
-14 -6 -27 -10 -29 -10 -3 0 -27 20 -55 45 -46 41 -70 54 -70 39 0 -3 16 -25
35 -48 19 -24 35 -45 35 -48 0 -12 -50 -17 -74 -8 -22 8 -26 15 -26 53 0 50
-30 92 -74 103 -17 4 -27 15 -31 35 -8 38 -49 69 -90 69 -18 0 -38 7 -45 15
-18 21 -70 33 -104 24 -20 -6 -35 -4 -50 6 -24 17 -59 19 -86 5 -15 -8 -31 -5
-67 14 -45 22 -195 72 -291 96 -49 13 -49 15 -5 108 33 69 130 176 152 166 9
-4 66 -22 126 -41z m-140 -315 c55 -16 117 -39 137 -49 33 -17 38 -24 38 -53
0 -44 32 -84 75 -92 19 -3 35 -12 35 -18 0 -19 42 -54 75 -62 17 -4 43 -18 58
-31 16 -12 41 -23 57 -23 18 0 39 -11 58 -30 24 -23 39 -30 69 -30 22 0 47 6
57 13 16 12 25 11 58 0 41 -14 110 -4 123 17 3 6 21 10 40 10 25 0 40 8 58 30
14 17 34 30 44 30 30 0 82 38 89 65 4 18 13 25 29 25 13 0 37 11 54 25 23 20
31 36 33 68 3 42 3 42 68 65 107 38 239 74 254 69 20 -8 4 -102 -30 -173 -34
-73 -143 -184 -234 -237 -161 -94 -348 -139 -570 -140 -168 0 -274 17 -417 68
-249 89 -414 256 -430 435 l-6 63 39 -7 c21 -4 84 -21 139 -38z m304 -74 c19
-24 21 -25 43 -10 12 9 33 16 47 16 27 0 61 -26 61 -47 0 -15 16 -17 25 -3 12
19 53 10 74 -16 14 -18 18 -34 14 -55 -5 -28 -4 -29 31 -29 67 0 100 -66 55
-111 -30 -30 -78 -22 -104 17 -17 27 -24 31 -53 26 -35 -5 -72 18 -72 45 0 11
-8 13 -31 8 -39 -9 -79 25 -79 66 0 26 -1 27 -29 16 -25 -9 -33 -8 -50 8 -27
24 -27 60 1 79 31 22 43 20 67 -10z"/>
<path d="M2920 1779 c-35 -14 -40 -26 -40 -97 l0 -63 -25 20 c-83 64 -205 12
-236 -101 -15 -55 -6 -149 18 -189 30 -53 64 -71 141 -77 94 -6 151 19 181 82
19 38 21 61 21 239 0 216 2 210 -60 186z m-69 -228 c25 -25 29 -37 29 -84 0
-45 -5 -61 -26 -86 -46 -55 -114 -34 -134 40 -21 78 17 159 75 159 16 0 38
-12 56 -29z"/>
<path d="M706 1660 c-16 -5 -40 -19 -54 -32 -43 -40 -52 -77 -52 -223 l0 -135
45 0 45 0 0 133 c0 121 2 136 20 152 25 23 76 24 98 1 14 -14 18 -41 20 -151
l4 -135 38 0 38 0 3 128 c4 136 10 155 56 173 30 11 72 -8 78 -35 3 -12 6 -75
8 -141 l2 -120 43 -3 42 -3 0 141 c0 159 -11 199 -63 231 -54 32 -102 34 -159
6 -50 -25 -51 -25 -77 -7 -31 23 -95 33 -135 20z"/>
<path d="M1318 1661 c-91 -30 -131 -89 -132 -195 0 -91 22 -138 78 -170 86
-50 188 -41 250 21 20 20 36 42 36 50 0 18 -90 17 -116 -2 -10 -8 -37 -15 -60
-15 -46 0 -84 31 -84 68 0 22 3 22 135 22 l135 0 0 38 c-1 74 -37 139 -91 167
-34 18 -117 26 -151 16z m97 -87 c18 -7 47 -58 38 -68 -4 -3 -42 -6 -85 -6
-86 0 -94 7 -57 54 21 26 65 35 104 20z"/>
<path d="M1770 1663 c-85 -14 -140 -60 -160 -133 -6 -22 -9 -88 -8 -147 l3
-108 48 -3 47 -3 0 119 c0 140 12 167 81 178 l39 7 0 48 c0 33 -4 49 -12 48
-7 -1 -24 -4 -38 -6z"/>
<path d="M1976 1659 c-87 -21 -136 -91 -136 -195 0 -73 30 -139 79 -171 42
-29 144 -32 198 -7 36 18 83 77 83 106 0 15 -9 18 -50 18 -27 0 -50 -4 -50
-10 0 -22 -41 -50 -74 -50 -52 0 -76 36 -76 115 0 82 23 115 81 115 34 0 43
-5 57 -30 15 -27 22 -30 65 -30 42 0 47 2 47 23 0 81 -116 142 -224 116z"/>
<path d="M2346 1660 c-37 -12 -66 -38 -82 -77 -8 -18 -14 -35 -14 -38 0 -3 20
-5 45 -5 34 0 50 6 69 25 29 29 62 32 94 9 44 -30 23 -50 -71 -68 -92 -18
-112 -28 -132 -66 -31 -60 -10 -137 44 -160 48 -19 183 -10 218 16 52 38 64
77 61 196 -3 96 -5 109 -26 131 -38 40 -136 57 -206 37z m134 -225 c0 -36 -19
-71 -47 -84 -31 -14 -66 -14 -81 1 -16 16 -15 53 2 67 12 10 84 34 119 40 4 0
7 -10 7 -24z"/>
<path d="M3114 1651 c-96 -44 -133 -180 -79 -287 31 -60 59 -82 122 -93 124
-24 222 41 238 159 8 61 0 103 -32 158 -44 76 -157 105 -249 63z m151 -91 c14
-14 20 -37 23 -83 4 -57 1 -66 -23 -95 -48 -58 -125 -37 -145 39 -32 119 67
214 145 139z"/>
</g>
</svg>
