<?xml version="1.0" standalone="no"?>
<!DOCTYPE svg PUBLIC "-//W3C//DTD SVG 20010904//EN"
 "http://www.w3.org/TR/2001/REC-SVG-20010904/DTD/svg10.dtd">
<svg version="1.0" xmlns="http://www.w3.org/2000/svg"
 width="379.000000pt" height="133.000000pt" viewBox="0 0 379.000000 133.000000"
 preserveAspectRatio="xMidYMid meet">

<g transform="translate(0.000000,133.000000) scale(0.100000,-0.100000)"
fill="#000000" stroke="none">
<path d="M376 1142 c-7 -11 -166 -374 -166 -378 0 -2 24 -4 54 -4 53 0 54 0
70 40 l16 40 90 0 90 0 20 -40 c20 -39 21 -40 75 -40 l55 0 -14 33 c-7 17 -46
105 -86 195 l-72 162 -64 0 c-34 0 -65 -4 -68 -8z m115 -199 c8 -22 6 -23 -46
-23 -30 0 -55 4 -55 10 0 5 12 35 26 67 l26 58 20 -45 c11 -25 24 -55 29 -67z"/>
<path d="M710 955 l0 -195 50 0 49 0 3 138 3 137 50 -137 50 -138 46 0 c35 0
49 4 54 18 4 9 25 67 46 127 22 61 44 114 50 119 5 6 9 -41 9 -127 l0 -137 48
0 47 0 -3 195 -3 196 -77 -3 -77 -3 -44 -123 c-24 -68 -47 -119 -51 -115 -4 4
-17 37 -30 73 -12 36 -31 89 -42 118 l-19 52 -80 0 -79 0 0 -195z"/>
<path d="M1300 955 l0 -195 165 0 165 0 0 40 0 40 -115 0 -115 0 0 35 0 35
110 0 110 0 0 40 0 40 -110 0 -110 0 0 35 0 35 115 0 115 0 0 45 0 45 -165 0
-165 0 0 -195z"/>
<path d="M1710 956 l0 -196 50 0 50 0 0 69 c0 64 2 70 19 66 18 -3 64 -48 112
-109 18 -23 28 -26 80 -26 32 0 59 4 59 8 0 4 -25 32 -55 62 -30 30 -55 57
-55 60 0 3 16 14 34 24 59 32 82 107 51 166 -26 51 -65 63 -212 68 l-133 4 0
-196z m254 82 c8 -13 8 -23 0 -35 -9 -14 -28 -19 -83 -21 l-71 -3 0 41 0 41
71 -3 c55 -2 74 -7 83 -20z"/>
<path d="M2130 955 l0 -195 50 0 50 0 0 195 0 195 -50 0 -50 0 0 -195z"/>
<path d="M2440 1139 c-161 -32 -203 -252 -68 -352 18 -14 49 -22 87 -25 l60
-4 15 37 c9 21 16 39 16 41 0 2 -20 4 -45 4 -35 0 -52 6 -77 29 -29 26 -33 35
-33 80 0 42 5 55 28 78 24 25 36 28 107 31 l80 4 0 44 0 44 -62 -1 c-35 -1
-83 -5 -108 -10z"/>
<path d="M2663 962 c-46 -103 -83 -191 -83 -195 0 -4 24 -7 53 -7 51 0 52 1
69 40 l17 40 91 0 92 0 15 -40 16 -40 58 0 57 0 -86 195 -86 195 -65 0 -66 0
-82 -188z m178 23 l27 -65 -58 0 -58 0 26 65 c14 36 28 65 31 65 3 0 18 -29
32 -65z"/>
<path d="M3080 955 l0 -195 51 0 50 0 -3 120 c-2 66 -1 120 2 120 3 0 40 -54
84 -120 l79 -120 63 0 64 0 0 195 0 195 -50 0 -49 0 -3 -122 -3 -121 -80 121
-80 122 -62 0 -63 0 0 -195z"/>
<path d="M710 445 l0 -195 165 0 165 0 0 40 0 40 -115 0 -115 0 0 35 0 35 110
0 110 0 0 40 0 40 -110 0 -110 0 0 35 0 35 115 0 115 0 0 45 0 45 -165 0 -165
0 0 -195z"/>
<path d="M1091 611 c13 -17 52 -61 85 -98 l62 -68 -85 -95 -86 -95 61 -3 c66
-3 65 -4 151 98 19 22 22 23 33 9 7 -8 32 -37 55 -63 l41 -47 63 3 63 3 -82
91 c-45 51 -82 96 -82 100 0 5 19 29 40 54 22 25 59 66 81 93 l41 47 -64 0
-63 0 -50 -60 c-27 -33 -52 -59 -55 -59 -3 0 -27 27 -54 60 l-49 59 -65 0 -65
0 24 -29z"/>
<path d="M1560 445 l0 -195 50 0 50 0 0 65 0 65 89 0 c107 0 147 20 171 88 13
37 13 47 0 85 -12 34 -24 46 -60 65 -39 19 -59 22 -172 22 l-128 0 0 -195z
m262 80 c9 -21 8 -28 -7 -45 -15 -16 -31 -20 -87 -20 l-68 0 0 45 0 45 75 0
c71 0 76 -2 87 -25z"/>
<path d="M1980 445 l0 -195 50 0 50 0 0 70 c0 62 2 70 19 70 10 0 46 -31 80
-70 l63 -70 60 0 60 0 -62 70 -61 69 35 15 c67 28 89 127 40 185 -34 41 -77
51 -216 51 l-118 0 0 -195z m254 83 c8 -13 8 -23 0 -35 -9 -14 -28 -19 -83
-21 l-71 -3 0 41 0 41 71 -3 c55 -2 74 -7 83 -20z"/>
<path d="M2400 445 l0 -195 165 0 165 0 0 40 0 39 -112 3 -113 3 -3 33 -3 32
115 0 116 0 0 43 0 42 -112 0 -113 0 -3 33 -3 32 115 0 116 0 0 45 0 45 -165
0 -165 0 0 -195z"/>
<path d="M2875 633 c-77 -20 -118 -124 -72 -183 29 -37 52 -45 141 -50 87 -5
91 -6 94 -29 2 -13 -2 -28 -10 -32 -7 -5 -61 -9 -120 -9 l-108 0 0 -40 0 -40
125 0 c173 0 215 24 215 123 0 40 -5 53 -29 78 -28 27 -34 29 -109 29 -63 0
-85 4 -103 19 -20 16 -21 21 -10 35 11 13 33 16 110 16 l97 0 17 35 c9 20 17
40 17 45 0 10 -217 12 -255 3z"/>
<path d="M3256 630 c-64 -20 -98 -88 -76 -154 18 -55 49 -70 154 -76 77 -4 91
-8 94 -23 8 -39 -15 -47 -129 -47 l-109 0 0 -40 0 -40 123 0 c173 0 217 26
217 128 0 35 -6 49 -29 73 -27 27 -35 29 -103 29 -86 0 -115 7 -122 27 -13 33
13 43 114 43 98 0 98 0 108 28 5 15 13 35 17 45 7 16 -2 17 -111 16 -66 0
-132 -5 -148 -9z"/>
</g>
</svg>
