<?xml version="1.0" standalone="no"?>
<!DOCTYPE svg PUBLIC "-//W3C//DTD SVG 20010904//EN"
 "http://www.w3.org/TR/2001/REC-SVG-20010904/DTD/svg10.dtd">
<svg version="1.0" xmlns="http://www.w3.org/2000/svg"
 width="4031.000000pt" height="4031.000000pt" viewBox="0 0 4031.000000 4031.000000"
 preserveAspectRatio="xMidYMid meet">

<g transform="translate(0.000000,4031.000000) scale(0.100000,-0.100000)"
fill="#000000" stroke="none">
<path d="M8400 24849 c-1864 -99 -3521 -699 -4630 -1676 -688 -606 -1095
-1303 -1217 -2083 -26 -167 -26 -887 0 -1065 64 -432 157 -736 342 -1110 112
-226 222 -407 362 -593 863 -1150 2394 -1924 4283 -2166 1246 -160 2588 -90
3722 194 1715 430 3016 1359 3607 2575 267 548 375 1085 357 1770 -7 305 -26
457 -86 695 -55 215 -122 395 -231 612 -563 1124 -1840 2040 -3509 2517 -640
183 -1338 294 -2069 331 -229 11 -712 11 -931 -1z m1020 -249 c1391 -85 2647
-446 3645 -1049 146 -88 455 -296 455 -306 0 -5 -145 -65 -287 -116 -937 -343
-1843 -310 -2713 98 -495 232 -997 346 -1455 330 -523 -19 -952 -163 -1331
-448 l-91 -68 -114 -11 c-196 -18 -316 -43 -639 -131 -284 -78 -359 -90 -547
-90 -178 1 -242 8 -443 52 -415 92 -974 253 -1387 400 l-173 62 58 40 c379
266 908 535 1435 731 746 277 1607 453 2477 505 199 12 919 12 1110 1z m60
-1305 c304 -46 620 -142 915 -277 520 -239 960 -347 1475 -364 553 -19 1116
98 1725 356 l145 62 38 -28 c79 -59 444 -435 541 -557 281 -355 470 -718 577
-1106 19 -69 36 -145 37 -169 l2 -43 -370 -94 c-394 -99 -616 -163 -970 -276
-378 -122 -876 -307 -1189 -443 -107 -46 -132 -54 -145 -43 -9 6 -169 145
-356 307 -1070 930 -1744 1502 -2000 1696 -118 90 -288 200 -369 239 -206 98
-441 110 -677 34 -176 -57 -368 -178 -724 -459 -256 -202 -418 -314 -516 -359
-102 -46 -220 -64 -374 -58 -180 8 -300 45 -365 112 -29 30 -32 38 -23 57 14
31 388 435 612 661 331 336 562 506 842 621 172 71 403 125 624 145 134 13
416 5 545 -14z m-5245 -183 c509 -203 1307 -440 1725 -511 63 -11 190 -25 281
-32 237 -17 353 -2 694 91 185 51 383 100 399 100 6 0 -40 -51 -100 -112 -235
-240 -560 -601 -591 -656 -86 -150 -5 -315 202 -413 157 -74 326 -104 538 -96
171 6 227 20 372 91 124 61 240 141 495 341 326 255 572 401 749 446 70 18
104 20 195 16 224 -10 380 -95 787 -428 331 -270 1159 -979 1974 -1690 264
-230 301 -272 326 -372 16 -65 7 -172 -19 -222 -27 -55 -107 -127 -178 -163
-83 -41 -153 -56 -241 -49 -105 8 -176 45 -293 153 -332 305 -775 698 -853
757 -54 41 -98 48 -129 20 -22 -20 -23 -70 -2 -103 9 -14 211 -221 449 -460
489 -492 489 -492 490 -620 0 -62 -5 -85 -27 -130 -50 -103 -166 -196 -298
-240 -53 -18 -81 -21 -155 -18 -141 7 -151 13 -433 286 -447 432 -506 482
-572 482 -20 0 -41 -5 -48 -12 -15 -15 -15 -67 1 -94 7 -12 149 -176 317 -363
168 -188 317 -365 333 -392 68 -127 5 -265 -158 -345 -65 -32 -86 -37 -168
-42 -172 -9 -170 -9 -405 219 -212 207 -407 381 -455 406 -39 20 -76 13 -99
-18 -18 -24 -18 -29 -5 -62 9 -19 127 -159 264 -309 136 -151 256 -284 267
-295 18 -21 18 -23 -3 -52 -28 -39 -107 -77 -201 -97 -96 -20 -207 -13 -326
22 -91 26 -251 91 -259 105 -3 4 7 43 21 86 36 104 45 275 19 388 -49 221
-222 424 -435 511 -72 29 -190 54 -256 54 l-44 0 0 91 c0 202 -76 383 -209
493 -167 140 -434 199 -632 140 -28 -9 -52 -14 -53 -12 -1 2 -19 29 -40 61
-184 274 -624 366 -919 191 l-59 -34 -66 60 c-225 207 -563 220 -799 32 l-52
-42 -91 60 c-396 259 -1174 540 -2137 770 -251 60 -479 122 -491 135 -10 10
44 214 95 355 55 155 189 430 280 573 147 232 307 430 518 643 152 153 384
356 400 350 6 -2 55 -22 110 -44z m-1225 -2198 c875 -206 1280 -324 1719 -499
295 -117 566 -252 651 -324 l31 -26 -21 -79 c-56 -218 1 -428 160 -586 128
-129 261 -184 442 -184 l107 0 11 -46 c6 -25 30 -83 53 -130 56 -116 185 -247
302 -307 143 -74 284 -104 395 -84 46 8 57 7 65 -6 108 -172 168 -231 305
-302 170 -88 291 -105 477 -65 29 6 34 3 43 -20 33 -88 147 -223 244 -288 132
-91 254 -128 417 -128 175 0 326 54 464 166 l56 46 97 -45 c189 -89 344 -129
507 -130 212 -2 385 60 494 179 l60 66 53 -12 c67 -17 198 -17 268 0 220 50
461 264 496 440 l6 25 131 1 c115 0 142 4 212 27 158 52 318 170 396 291 50
75 77 151 91 245 l10 76 127 1 c109 0 137 4 206 27 44 15 109 43 145 64 86 50
197 162 238 239 80 153 83 346 7 512 l-24 53 47 21 c336 146 993 371 1557 533
217 63 804 214 889 229 l39 7 -6 -233 c-6 -250 -18 -354 -68 -558 -410 -1702
-2524 -3032 -5199 -3269 -372 -33 -1013 -43 -1375 -21 -1844 111 -3464 722
-4508 1698 -588 549 -939 1185 -1033 1872 -18 129 -25 534 -10 558 10 17 11
17 226 -34z m3146 -739 c124 -61 194 -164 216 -316 l11 -81 34 54 c160 254
464 349 713 223 99 -50 181 -174 197 -294 7 -56 27 -91 53 -91 10 0 40 19 67
42 67 58 142 90 224 96 200 14 396 -95 461 -256 19 -49 22 -74 22 -187 0 -114
-4 -140 -28 -213 -49 -148 -30 -171 101 -128 208 68 386 32 529 -109 250 -245
178 -650 -143 -803 -71 -33 -87 -37 -180 -40 -123 -5 -206 16 -299 76 -131 85
-224 249 -224 395 0 42 -25 77 -54 77 -12 0 -50 -22 -83 -48 -105 -84 -198
-107 -312 -77 -143 37 -266 128 -318 234 -23 46 -28 70 -29 138 -2 123 -19
136 -113 79 -145 -88 -260 -94 -411 -20 -193 95 -291 278 -276 515 5 87 4 98
-14 114 -18 17 -21 16 -62 -18 -61 -49 -115 -74 -191 -88 -163 -30 -337 62
-414 218 -25 53 -28 68 -28 163 0 94 3 111 28 161 38 79 95 140 165 177 79 42
123 52 211 47 60 -3 88 -11 147 -40z"/>
<path d="M33937 24604 c-204 -44 -338 -143 -400 -294 -21 -53 -22 -68 -27
-504 l-5 -449 -45 59 c-118 157 -285 270 -475 320 -57 16 -104 19 -250 18
-160 -1 -191 -4 -278 -27 -407 -108 -692 -426 -812 -907 -46 -182 -59 -308
-59 -555 0 -256 15 -376 74 -554 131 -402 369 -635 759 -746 187 -53 249 -60
516 -60 266 1 348 11 515 66 355 115 602 364 714 717 58 185 56 125 56 1588
l0 1344 -107 -1 c-60 0 -139 -7 -176 -15z m-852 -1488 c253 -80 402 -320 435
-698 41 -480 -134 -841 -447 -922 -86 -22 -250 -21 -335 3 -235 64 -377 285
-417 644 -30 264 3 496 99 693 102 210 249 302 487 303 81 1 118 -4 178 -23z"/>
<path d="M35549 23765 c-372 -58 -622 -207 -825 -492 -327 -458 -378 -1145
-124 -1668 130 -268 337 -483 562 -584 104 -46 242 -87 363 -107 151 -25 468
-25 610 0 366 66 622 223 804 496 199 297 280 598 268 989 -9 309 -75 542
-221 785 -206 344 -475 519 -890 581 -128 19 -425 19 -547 0z m456 -601 c294
-75 464 -376 465 -824 0 -307 -75 -545 -218 -689 -117 -117 -242 -164 -432
-164 -185 0 -308 49 -425 167 -79 80 -129 165 -168 291 -39 126 -50 240 -44
452 4 158 9 203 30 285 63 241 212 414 409 477 100 32 266 34 383 5z"/>
<path d="M18145 23759 c-254 -37 -456 -138 -630 -314 -187 -189 -295 -426
-325 -716 -6 -61 -10 -431 -10 -940 l0 -839 325 0 324 0 3 878 c3 874 3 877
25 942 53 156 164 265 316 312 93 28 272 22 360 -11 149 -58 242 -192 267
-384 5 -40 10 -447 10 -904 l0 -833 325 0 325 0 0 863 c0 742 2 871 15 922 46
177 161 297 334 349 67 20 226 21 296 2 156 -41 259 -148 311 -322 16 -54 18
-131 21 -936 l4 -878 324 0 325 0 0 828 c0 823 -5 969 -36 1120 -85 412 -352
713 -734 824 -162 47 -393 61 -551 33 -211 -37 -389 -128 -550 -283 l-78 -74
-51 55 c-144 158 -372 275 -594 306 -89 13 -264 13 -351 0z"/>
<path d="M29976 23759 c-222 -23 -419 -89 -566 -189 -71 -48 -185 -170 -229
-244 -65 -110 -117 -276 -136 -438 l-7 -58 345 0 345 0 6 44 c10 63 67 175
112 218 85 81 214 114 408 105 284 -14 396 -94 396 -284 0 -76 -23 -127 -74
-166 -81 -62 -168 -84 -501 -126 -126 -16 -276 -39 -333 -51 -442 -90 -680
-285 -763 -625 -32 -127 -32 -342 -1 -469 78 -314 325 -515 697 -566 102 -14
481 -14 605 0 499 55 829 242 980 555 94 193 102 283 98 1030 -4 581 -5 603
-26 680 -56 204 -165 340 -342 427 -279 138 -650 195 -1014 157z m671 -1684
c-5 -203 -16 -263 -65 -363 -54 -112 -153 -192 -302 -248 -263 -99 -497 -49
-582 124 -31 62 -33 73 -33 167 1 87 4 107 27 155 67 142 165 191 515 259 235
46 314 68 388 109 62 34 59 47 52 -203z"/>
<path d="M22535 23754 c-281 -43 -471 -117 -653 -254 -283 -213 -444 -523
-493 -949 -15 -138 -7 -495 15 -614 83 -443 291 -718 687 -906 247 -117 494
-161 787 -140 283 20 500 89 693 220 88 59 221 189 292 284 58 77 129 211 143
268 l6 27 -378 0 -379 -1 -33 -44 c-41 -53 -122 -109 -198 -135 -139 -48 -390
-47 -534 4 -222 77 -369 281 -396 548 l-7 68 989 2 989 3 3 85 c5 133 -15 408
-37 518 -95 464 -381 805 -790 942 -164 55 -265 71 -481 75 -107 2 -208 1
-225 -1z m402 -608 c219 -70 361 -248 389 -489 l7 -57 -612 0 c-587 0 -611 1
-611 18 0 46 43 180 82 255 79 153 207 255 358 286 30 6 64 13 75 15 55 13
233 -3 312 -28z"/>
<path d="M25630 23749 c-191 -22 -405 -81 -541 -149 -330 -165 -552 -456 -644
-843 -41 -175 -45 -258 -45 -1052 l0 -755 360 0 360 0 0 753 c0 800 3 855 50
991 59 171 198 286 402 331 60 13 114 16 242 13 l166 -3 0 363 0 362 -137 -1
c-76 -1 -172 -5 -213 -10z"/>
<path d="M27220 23749 c-611 -78 -1009 -486 -1104 -1130 -107 -722 137 -1347
619 -1587 307 -152 803 -185 1162 -77 188 57 341 150 478 289 184 186 316 443
341 665 l7 61 -379 0 -379 0 -17 -81 c-22 -106 -75 -216 -134 -279 -80 -85
-188 -122 -358 -123 -173 0 -284 41 -388 145 -138 138 -211 422 -194 758 15
304 71 480 196 613 103 111 220 157 395 157 160 0 275 -40 360 -124 48 -48
108 -163 129 -246 l13 -55 383 -3 382 -2 -7 47 c-25 179 -69 324 -138 458 -44
84 -67 116 -147 195 -67 67 -118 109 -174 140 -162 91 -341 147 -553 175 -122
16 -384 18 -493 4z"/>
</g>
</svg>
