<?xml version="1.0" standalone="no"?>
<!DOCTYPE svg PUBLIC "-//W3C//DTD SVG 20010904//EN"
 "http://www.w3.org/TR/2001/REC-SVG-20010904/DTD/svg10.dtd">
<svg version="1.0" xmlns="http://www.w3.org/2000/svg"
 width="7813.000000pt" height="4050.000000pt" viewBox="0 0 7813.000000 4050.000000"
 preserveAspectRatio="xMidYMid meet">

<g transform="translate(0.000000,4050.000000) scale(0.100000,-0.100000)"
fill="#000000" stroke="none">
<path d="M47384 40100 c-1047 -73 -2001 -569 -2652 -1379 -425 -528 -707
-1193 -786 -1851 -8 -69 -18 -143 -22 -165 -4 -22 -10 -4091 -13 -9042 l-6
-9001 -3290 5976 c-1809 3287 -4216 7660 -5348 9717 -1132 2057 -2090 3796
-2129 3865 -506 893 -1356 1536 -2350 1779 -324 79 -569 105 -948 98 -353 -6
-531 -29 -845 -108 -1410 -355 -2493 -1526 -2739 -2964 -54 -312 -49 144 -56
-5920 -7 -6034 -3 -5627 -55 -6145 -137 -1339 -520 -2659 -1122 -3865 -905
-1811 -2299 -3356 -4003 -4437 -1507 -956 -3215 -1537 -4995 -1697 -290 -27
-561 -41 -770 -41 -93 0 -180 -3 -192 -6 l-23 -6 0 -3699 0 -3699 153 0 c322
0 1002 32 1382 65 2861 249 5559 1119 8000 2580 1791 1072 3387 2437 4725
4040 1958 2347 3305 5132 3930 8127 32 154 60 282 63 284 2 2 50 -80 107 -184
57 -103 2569 -4649 5582 -10102 4293 -7768 5504 -9952 5593 -10086 63 -94 155
-222 206 -285 127 -156 397 -424 552 -547 148 -119 424 -303 583 -391 320
-175 720 -312 1099 -376 145 -25 154 -25 738 -25 633 0 598 -2 862 52 51 10
344 103 445 140 175 65 453 215 665 359 313 212 540 425 768 719 383 494 579
861 715 1336 73 254 97 411 109 699 4 105 8 7507 8 16450 0 13394 -2 16282
-13 16385 -93 882 -460 1658 -1072 2270 -599 600 -1373 972 -2215 1064 -177
19 -483 27 -641 16z"/>
<path d="M67741 38349 c-80 -14 -174 -63 -241 -127 -49 -47 -299 -426 -1452
-2207 -832 -1285 -1413 -2192 -1444 -2255 -58 -115 -104 -249 -131 -380 -25
-119 -25 -420 0 -540 28 -134 76 -274 131 -384 38 -75 1306 -2059 1672 -2616
53 -81 106 -114 179 -114 73 0 124 33 178 113 24 36 1244 1923 2711 4193 1765
2732 2669 4139 2673 4162 8 50 -13 102 -55 134 l-35 27 -2066 1 c-1182 1
-2089 -2 -2120 -7z"/>
<path d="M72410 36784 c-219 -41 -432 -205 -530 -409 -53 -110 -70 -190 -70
-322 0 -302 152 -545 425 -678 303 -148 656 -73 889 187 66 73 139 213 161
308 21 94 19 259 -4 353 -62 240 -259 452 -496 533 -69 24 -98 28 -215 30 -74
1 -146 0 -160 -2z m318 -180 c146 -49 266 -150 337 -285 47 -89 65 -166 65
-274 0 -50 -7 -117 -15 -149 -45 -171 -180 -322 -350 -390 -280 -112 -603 10
-735 277 -42 86 -70 191 -70 267 0 134 65 292 163 397 121 130 242 182 420
183 90 0 121 -4 185 -26z"/>
<path d="M72453 36475 c-148 -40 -259 -149 -305 -298 -61 -203 34 -418 230
-514 64 -32 85 -37 164 -41 144 -7 273 41 360 135 l28 29 -60 59 -60 59 -27
-22 c-100 -81 -168 -108 -242 -97 -64 10 -103 27 -149 69 -58 53 -84 115 -84
201 0 83 18 129 70 187 49 54 109 81 186 80 75 0 117 -17 179 -72 l48 -43 60
59 60 59 -49 45 c-111 103 -268 143 -409 105z"/>
</g>
</svg>
