<?xml version="1.0" standalone="no"?>
<!DOCTYPE svg PUBLIC "-//W3C//DTD SVG 20010904//EN"
 "http://www.w3.org/TR/2001/REC-SVG-20010904/DTD/svg10.dtd">
<svg version="1.0" xmlns="http://www.w3.org/2000/svg"
 width="600.000000pt" height="600.000000pt" viewBox="0 0 600.000000 600.000000"
 preserveAspectRatio="xMidYMid meet">

<g transform="translate(0.000000,600.000000) scale(0.100000,-0.100000)"
fill="#000000" stroke="none">
<path d="M2526 4154 c-65 -20 -147 -102 -187 -187 -54 -116 -60 -171 -57 -540
l3 -332 589 -3 c575 -2 590 -2 631 18 84 41 160 142 201 270 15 47 18 106 22
408 3 267 1 356 -8 367 -19 22 -1122 21 -1194 -1z m321 -213 c38 -33 110 -99
161 -148 81 -78 92 -92 92 -123 0 -29 -10 -43 -62 -95 -147 -141 -381 -345
-404 -351 -52 -13 -114 34 -114 86 0 33 26 61 198 215 78 70 142 134 142 142
0 9 -45 59 -100 112 -90 86 -100 100 -100 131 1 38 13 60 45 78 42 24 72 14
142 -47z m358 40 c17 -11 90 -77 164 -148 119 -113 134 -132 134 -161 0 -23
-9 -43 -34 -68 -63 -66 -390 -359 -416 -373 -41 -21 -101 1 -119 44 -9 24 -11
42 -5 58 5 13 82 90 170 171 88 81 163 152 167 158 4 6 -33 50 -88 103 -131
126 -142 152 -89 206 35 34 72 38 116 10z"/>
<path d="M595 2782 c-80 -27 -111 -56 -149 -135 -66 -134 -71 -274 -12 -333
39 -39 86 -49 285 -63 79 -6 150 -16 157 -22 18 -15 18 -73 -1 -137 -25 -83
-36 -86 -312 -90 l-232 -4 -11 -56 c-7 -32 -14 -68 -17 -80 l-6 -24 274 4
c303 4 320 7 388 71 63 60 113 201 115 328 1 54 -3 73 -20 96 -28 37 -71 48
-271 68 -107 11 -177 22 -192 32 -22 14 -23 20 -17 70 7 62 27 107 53 119 10
5 119 11 243 14 l225 5 11 53 c7 29 15 64 18 77 l6 25 -242 0 c-204 -1 -251
-3 -293 -18z"/>
<path d="M4217 2733 c-3 -5 -15 -56 -27 -115 l-22 -107 -157 2 c-140 2 -161 0
-201 -19 -68 -31 -115 -90 -140 -173 -62 -211 -77 -366 -39 -415 43 -55 69
-61 249 -61 157 0 168 1 221 26 68 32 104 77 130 160 11 34 48 199 84 368 36
168 67 314 69 324 4 15 -5 17 -79 17 -46 0 -86 -3 -88 -7z m-127 -376 c34 -17
36 -59 10 -176 -27 -124 -40 -145 -95 -166 -51 -20 -174 -17 -200 5 -21 17
-19 58 10 184 26 113 47 151 89 159 48 10 163 6 186 -6z"/>
<path d="M3405 2643 l-78 -68 58 -3 c71 -4 139 19 162 55 15 23 15 26 -4 51
-33 45 -53 39 -138 -35z"/>
<path d="M4472 2667 c-6 -7 -14 -32 -18 -55 l-7 -42 82 0 c90 0 89 0 104 78
l7 32 -79 0 c-52 0 -82 -4 -89 -13z"/>
<path d="M4821 2658 c-4 -13 -11 -41 -15 -63 -13 -75 -13 -75 -66 -75 l-49 0
-10 -52 c-21 -104 -22 -102 30 -108 l45 -5 -52 -250 c-29 -137 -52 -255 -50
-261 4 -11 150 -13 162 -2 3 4 28 114 55 245 27 131 53 248 59 260 6 16 17 21
44 21 19 0 39 3 45 6 10 7 22 43 36 114 l7 32 -48 0 -47 0 6 43 c4 23 10 59
13 80 l7 37 -82 0 c-75 0 -82 -2 -90 -22z"/>
<path d="M2205 2520 c-177 -7 -216 -18 -273 -73 -42 -40 -62 -79 -97 -187 -24
-73 -28 -102 -29 -207 -1 -116 0 -122 24 -148 52 -56 68 -60 292 -63 l207 -4
10 39 c6 21 13 56 17 79 l6 41 -171 5 c-146 4 -174 8 -191 23 -25 22 -26 67
-4 173 28 141 58 162 224 162 63 0 139 3 167 6 51 6 53 8 63 43 5 20 12 55 16
79 l7 42 -54 -2 c-30 -1 -126 -4 -214 -8z"/>
<path d="M5345 2520 c-105 -9 -178 -41 -216 -93 -58 -80 -115 -311 -107 -429
7 -98 53 -139 178 -159 135 -21 285 6 354 63 69 57 132 237 143 408 9 143 -30
192 -164 205 -32 3 -69 7 -83 9 -14 1 -61 -1 -105 -4z m159 -182 c41 -58 -13
-296 -75 -329 -13 -6 -55 -10 -106 -7 -76 3 -87 6 -105 28 -17 21 -19 34 -14
85 9 86 42 194 67 222 21 21 31 23 120 23 90 0 99 -2 113 -22z"/>
<path d="M1206 2503 c-9 -31 -75 -354 -92 -454 -19 -105 -15 -138 18 -169 35
-32 85 -40 260 -41 184 -1 216 6 261 61 15 18 35 49 43 69 17 40 114 488 114
527 0 23 -2 24 -79 24 -67 0 -80 -3 -85 -17 -3 -10 -23 -106 -46 -213 -48
-233 -55 -256 -83 -275 -30 -21 -174 -21 -205 1 -30 21 -29 40 18 260 22 104
43 201 46 217 l6 27 -86 0 c-72 0 -85 -3 -90 -17z"/>
<path d="M2602 2500 c-18 -11 -40 -33 -50 -50 -16 -26 -133 -556 -132 -601 0
-13 12 -16 75 -15 41 1 79 6 84 11 6 6 33 120 61 255 28 134 55 249 61 255 5
5 58 12 117 15 l107 5 12 45 c6 25 12 57 12 73 l1 27 -157 0 c-140 0 -162 -2
-191 -20z"/>
<path d="M3167 2509 c-59 -14 -112 -45 -146 -86 -51 -62 -94 -194 -110 -339
-17 -144 16 -213 111 -233 72 -16 443 -14 455 2 10 12 33 107 33 133 0 12 -31
14 -180 14 -137 0 -189 4 -216 15 -33 14 -35 17 -32 57 l3 43 227 3 227 2 11
58 c6 31 18 84 27 116 8 33 12 75 8 93 -9 51 -59 100 -118 118 -56 17 -236 19
-300 4z m224 -149 c14 -8 19 -21 19 -50 0 -29 -5 -42 -19 -50 -11 -5 -77 -10
-146 -10 l-127 0 7 33 c8 38 39 74 69 80 44 9 178 7 197 -3z"/>
<path d="M4435 2508 c-5 -12 -133 -627 -138 -658 -2 -11 13 -15 70 -16 41 -1
79 3 88 10 10 7 37 118 80 329 36 175 65 325 65 333 0 19 -158 21 -165 2z"/>
</g>
</svg>
