<?xml version="1.0" standalone="no"?>
<!DOCTYPE svg PUBLIC "-//W3C//DTD SVG 20010904//EN"
 "http://www.w3.org/TR/2001/REC-SVG-20010904/DTD/svg10.dtd">
<svg version="1.0" xmlns="http://www.w3.org/2000/svg"
 width="3840.000000pt" height="2160.000000pt" viewBox="0 0 3840.000000 2160.000000"
 preserveAspectRatio="xMidYMid meet">

<g transform="translate(0.000000,2160.000000) scale(0.100000,-0.100000)"
fill="#000000" stroke="none">
<path d="M24800 16913 c-309 -10 -821 -68 -1088 -124 -53 -11 -131 -26 -172
-34 -274 -54 -663 -172 -975 -297 -167 -66 -508 -230 -628 -301 -43 -26 -81
-47 -83 -47 -16 0 -358 -233 -429 -292 -11 -9 -56 -45 -100 -79 -187 -148
-408 -367 -545 -538 -19 -25 -40 -49 -45 -55 -20 -21 -142 -192 -198 -278 -70
-108 -173 -292 -211 -378 -16 -36 -39 -87 -52 -115 -85 -186 -168 -452 -214
-690 -70 -361 -84 -790 -35 -1091 141 -878 711 -1615 1756 -2270 128 -80 337
-204 344 -204 2 0 28 -14 57 -32 29 -17 224 -118 433 -223 554 -280 726 -376
975 -544 232 -157 416 -330 513 -482 49 -77 90 -170 113 -254 15 -55 19 -102
18 -220 -1 -135 -4 -159 -29 -235 -156 -483 -653 -789 -1450 -892 -130 -17
-732 -16 -955 1 -524 40 -924 117 -1385 268 -138 45 -391 138 -456 167 -19 9
-105 45 -191 81 -154 64 -241 103 -463 209 -167 80 -147 89 -173 -76 -21 -131
-51 -319 -147 -908 -19 -118 -55 -343 -80 -500 -25 -157 -53 -325 -61 -375 -8
-49 -19 -117 -24 -150 -6 -33 -28 -172 -50 -309 -22 -137 -39 -250 -38 -251
22 -19 407 -159 588 -215 58 -17 125 -38 150 -45 176 -54 648 -159 915 -204
1092 -183 2058 -208 2965 -75 499 73 878 166 1350 332 332 117 768 337 1060
535 73 50 294 214 335 248 11 10 31 27 45 38 66 55 264 246 342 331 515 563
819 1240 913 2035 25 211 30 552 11 735 -51 477 -197 881 -459 1270 -179 266
-403 506 -717 770 -109 91 -427 320 -522 375 -9 6 -61 38 -115 71 -54 34 -125
76 -158 94 -33 18 -64 36 -70 40 -22 15 -227 122 -570 295 -338 172 -571 295
-745 395 -76 44 -277 168 -295 182 -5 5 -48 36 -95 69 -190 135 -359 310 -427
444 -64 125 -76 172 -77 310 -1 110 3 141 22 205 63 201 189 361 395 500 371
252 915 356 1683 322 713 -32 1293 -171 1983 -476 106 -47 196 -86 200 -86 4
0 22 89 40 198 71 437 123 753 141 867 11 66 49 300 85 520 36 220 75 459 86
530 12 72 32 191 44 265 17 101 20 138 11 146 -13 12 -124 56 -276 107 -866
293 -1785 423 -2770 390z"/>
<path d="M11242 16698 c-12 -15 -15 -23 -127 -328 -48 -129 -102 -273 -120
-320 -18 -47 -40 -105 -48 -130 -9 -25 -25 -67 -35 -95 -11 -27 -52 -138 -92
-245 -93 -249 -92 -247 -133 -360 -44 -121 -142 -386 -174 -470 -13 -36 -35
-94 -48 -130 -12 -36 -34 -94 -48 -130 -14 -36 -49 -128 -77 -205 -28 -77 -64
-174 -80 -215 -16 -41 -51 -136 -78 -210 -65 -175 -429 -1154 -448 -1202 -8
-21 -21 -55 -29 -75 -8 -21 -60 -162 -115 -313 -56 -151 -117 -315 -135 -365
-18 -49 -57 -153 -85 -230 -28 -77 -74 -201 -102 -275 -57 -151 -108 -286
-173 -465 -24 -66 -60 -163 -80 -215 -20 -52 -47 -124 -59 -160 -13 -36 -35
-94 -49 -130 -14 -36 -64 -171 -112 -300 -48 -129 -98 -264 -112 -300 -14 -36
-43 -112 -64 -170 -21 -58 -72 -197 -114 -310 -42 -113 -91 -245 -109 -295
-61 -168 -130 -350 -133 -354 -2 -2 -5 -2 -7 0 -3 2 -77 367 -166 809 -178
888 -168 853 -330 1230 -91 211 -104 239 -222 474 -437 873 -990 1637 -1703
2352 -115 116 -262 257 -325 314 -63 57 -133 120 -155 140 -32 29 -279 235
-370 308 -62 50 -224 172 -384 290 -40 30 -169 118 -285 196 -374 249 -560
361 -564 341 -2 -8 6 -49 18 -92 12 -43 55 -204 96 -358 41 -154 101 -379 134
-500 32 -121 72 -272 89 -335 16 -63 48 -185 71 -270 23 -85 64 -238 90 -340
26 -102 59 -225 73 -275 14 -49 44 -160 66 -245 22 -85 59 -225 81 -310 45
-168 83 -311 153 -575 25 -93 63 -237 85 -320 22 -82 59 -220 81 -305 22 -85
56 -213 76 -285 19 -71 58 -218 86 -325 28 -107 62 -233 74 -280 13 -47 48
-179 79 -295 30 -115 71 -271 91 -345 20 -74 58 -218 85 -320 27 -102 71 -268
99 -370 55 -206 107 -399 126 -475 7 -27 38 -147 70 -265 31 -118 69 -262 85
-320 15 -58 51 -193 79 -300 29 -107 63 -235 76 -285 13 -49 50 -191 83 -315
33 -124 75 -279 93 -345 17 -66 47 -176 65 -245 18 -69 58 -219 88 -335 61
-236 186 -703 215 -810 11 -38 37 -134 57 -213 l37 -142 1611 2 1610 3 32 80
c46 118 183 455 199 490 13 29 83 202 210 515 60 150 144 355 238 585 25 61
74 182 110 270 36 88 100 246 142 350 82 202 142 349 250 615 36 91 73 179 80
195 12 27 68 163 210 515 23 58 73 179 110 270 37 91 96 235 130 320 35 85 84
207 110 270 26 63 75 185 110 270 144 356 197 487 210 515 8 17 66 161 131
320 64 160 148 367 187 460 38 94 93 229 122 300 29 72 87 216 130 320 42 105
97 240 122 300 25 61 71 176 103 256 33 81 68 166 79 190 11 24 47 112 79 194
33 83 85 213 117 290 31 77 86 210 120 295 35 85 111 272 170 415 59 143 117
287 130 320 13 33 47 116 75 185 55 131 64 154 128 315 22 55 49 120 60 145
11 25 53 126 93 225 71 178 94 236 222 550 95 235 293 719 326 800 16 39 59
142 94 230 36 88 84 205 106 259 22 55 38 103 35 108 -3 4 -722 8 -1598 8
-1263 0 -1596 -3 -1604 -12z"/>
<path d="M15685 16698 c-2 -7 -15 -87 -30 -178 -14 -91 -48 -300 -75 -465 -27
-165 -59 -361 -70 -435 -12 -74 -39 -245 -61 -380 -22 -135 -55 -339 -74 -455
-19 -115 -52 -320 -74 -455 -22 -135 -65 -400 -96 -590 -30 -190 -62 -385 -70
-435 -32 -197 -108 -667 -155 -960 -53 -324 -87 -534 -121 -745 -11 -69 -33
-206 -49 -305 -33 -201 -110 -675 -245 -1510 -8 -49 -33 -202 -55 -340 -22
-137 -60 -374 -85 -525 -24 -151 -58 -360 -75 -465 -40 -249 -73 -452 -116
-715 -36 -222 -60 -371 -139 -860 -62 -384 -97 -597 -145 -895 -22 -137 -58
-362 -80 -500 -23 -137 -50 -304 -61 -370 -11 -66 -21 -130 -23 -143 l-3 -22
1521 2 1520 3 43 260 c23 143 51 316 62 385 12 69 32 197 46 285 14 88 39 241
55 340 82 506 103 633 145 895 25 157 54 337 65 400 11 63 26 158 34 210 20
120 88 545 166 1025 16 99 43 266 60 370 45 281 64 400 115 710 25 154 54 334
65 400 11 66 31 192 45 280 14 88 35 216 46 285 11 69 28 177 39 240 11 63 26
158 34 210 15 96 50 314 151 935 61 375 65 398 130 800 25 154 68 420 95 590
28 171 64 393 80 495 36 221 119 734 160 985 16 99 50 308 75 465 25 157 53
326 61 375 8 50 19 115 24 145 4 30 25 156 45 280 20 124 42 260 49 303 7 42
10 79 8 82 -3 3 -686 5 -1519 5 -1202 0 -1514 -3 -1518 -12z"/>
<path d="M33175 16703 c-299 -11 -580 -77 -780 -181 -254 -133 -459 -350 -605
-641 -28 -54 -50 -101 -50 -104 0 -3 -13 -35 -30 -70 -16 -36 -30 -68 -30 -71
0 -2 -45 -112 -101 -243 -55 -131 -121 -287 -146 -348 -25 -60 -70 -166 -99
-235 -29 -69 -76 -181 -104 -250 -29 -69 -61 -145 -72 -170 -11 -25 -39 -92
-63 -150 -23 -58 -68 -166 -100 -240 -81 -191 -126 -297 -183 -435 -27 -66
-91 -219 -142 -340 -51 -121 -110 -260 -130 -310 -21 -49 -57 -135 -80 -190
-23 -55 -52 -125 -65 -155 -12 -30 -63 -152 -113 -270 -201 -480 -226 -540
-274 -655 -28 -66 -77 -182 -109 -258 -33 -76 -59 -140 -59 -142 0 -2 -11 -28
-24 -57 -13 -29 -44 -102 -69 -163 -86 -211 -115 -280 -131 -310 -9 -16 -16
-33 -16 -37 0 -4 -18 -49 -39 -100 -115 -270 -239 -565 -277 -658 -23 -58 -64
-154 -89 -215 -79 -186 -125 -295 -175 -415 -151 -366 -232 -559 -247 -590 -9
-19 -38 -89 -65 -155 -28 -66 -65 -156 -83 -200 -18 -44 -40 -93 -49 -110 -9
-16 -16 -33 -16 -37 0 -7 -44 -114 -125 -303 -31 -74 -92 -218 -218 -520 -27
-66 -76 -182 -108 -258 -33 -76 -59 -140 -59 -142 0 -2 -11 -28 -24 -57 -13
-29 -40 -91 -59 -138 -67 -164 -218 -526 -247 -590 -16 -36 -42 -99 -59 -140
-16 -41 -51 -124 -76 -185 -26 -60 -63 -148 -82 -195 -19 -47 -41 -98 -48
-115 -20 -44 -204 -480 -231 -548 l-23 -57 1596 2 1595 3 42 115 c23 63 64
176 90 250 27 74 63 176 81 225 94 255 149 406 170 465 65 184 233 647 245
678 l10 22 1954 0 1954 0 7 -27 c4 -16 15 -68 25 -118 10 -49 32 -155 48 -235
46 -218 80 -384 102 -490 151 -737 180 -882 180 -886 0 -2 634 -4 1409 -4
l1409 0 -29 137 c-16 76 -47 224 -69 328 -53 255 -155 742 -186 890 -14 66
-38 183 -54 260 -16 77 -50 239 -75 360 -26 121 -69 328 -97 460 -27 132 -62
301 -78 375 -15 74 -49 236 -75 360 -25 124 -60 288 -76 365 -16 77 -38 183
-49 235 -11 52 -33 160 -50 240 -16 80 -50 242 -75 360 -24 118 -58 280 -75
360 -17 80 -40 188 -50 240 -11 52 -33 160 -50 240 -17 80 -38 179 -46 220 -8
41 -26 125 -40 187 -13 61 -51 241 -83 400 -33 158 -75 362 -94 453 -20 91
-61 287 -91 435 -31 149 -65 311 -75 360 -27 125 -70 326 -146 695 -72 346
-108 522 -160 765 -36 172 -127 605 -206 985 -26 129 -61 298 -78 375 -16 77
-50 241 -76 365 -25 124 -60 288 -76 365 -16 77 -39 183 -49 235 -11 52 -33
160 -50 240 -17 80 -45 215 -62 300 -17 85 -36 158 -42 162 -10 7 -2313 8
-2481 1z m411 -3468 c25 -121 59 -283 75 -360 38 -176 120 -575 159 -765 16
-80 54 -266 85 -415 31 -148 67 -324 80 -390 13 -66 47 -230 75 -365 28 -135
69 -330 90 -435 21 -104 53 -257 70 -340 36 -173 60 -291 95 -460 13 -66 43
-208 65 -315 22 -107 45 -214 49 -237 l8 -43 -1263 0 c-764 0 -1264 4 -1264 9
0 9 53 155 202 556 33 88 72 194 87 235 16 41 52 138 80 215 73 197 120 326
185 505 31 85 63 171 71 190 8 19 44 116 80 215 36 99 76 209 90 245 47 123
177 475 185 500 5 14 18 50 30 80 12 30 35 93 51 140 17 47 47 128 66 180 20
52 60 163 90 245 30 83 72 200 94 260 22 61 49 135 59 165 10 30 48 138 85
240 37 102 82 228 100 280 18 52 38 109 45 125 l13 30 8 -35 c5 -19 29 -134
55 -255z"/>
</g>
</svg>
