<?xml version="1.0" standalone="no"?>
<!DOCTYPE svg PUBLIC "-//W3C//DTD SVG 20010904//EN"
 "http://www.w3.org/TR/2001/REC-SVG-20010904/DTD/svg10.dtd">
<svg version="1.0" xmlns="http://www.w3.org/2000/svg"
 width="1080.000000pt" height="1080.000000pt" viewBox="0 0 1080.000000 1080.000000"
 preserveAspectRatio="xMidYMid meet">

<g transform="translate(0.000000,1080.000000) scale(0.100000,-0.100000)"
fill="#000000" stroke="none">
<path d="M5155 10793 c-554 -33 -1012 -120 -1502 -288 -644 -219 -1250 -565
-1773 -1011 -150 -128 -440 -417 -569 -569 -1090 -1272 -1531 -2959 -1200
-4595 417 -2065 2012 -3709 4059 -4184 432 -100 779 -139 1250 -140 454 0 825
44 1279 155 1177 287 2258 998 2995 1969 839 1104 1221 2478 1070 3853 -134
1230 -683 2370 -1559 3242 -873 868 -1996 1404 -3226 1540 -240 26 -631 40
-824 28z m655 -68 c1738 -132 3291 -1100 4190 -2610 354 -595 606 -1320 695
-2003 24 -182 45 -462 45 -594 l0 -118 -2670 0 -2670 0 0 -2672 0 -2671 -187
6 c-1594 54 -3051 804 -4048 2082 -111 142 -314 445 -405 605 -335 588 -567
1274 -655 1935 -23 174 -45 462 -45 598 l0 117 2670 0 2670 0 0 2670 0 2670
113 0 c61 0 195 -7 297 -15z m-1948 -1659 c450 -77 664 -160 884 -344 173
-143 315 -431 356 -717 20 -142 17 -469 -6 -590 -44 -238 -147 -456 -304 -642
l-44 -52 100 -120 c55 -66 105 -129 111 -140 20 -36 -7 -69 -118 -142 -99 -67
-288 -169 -312 -169 -6 0 -66 54 -134 120 l-122 121 -84 -30 c-232 -83 -440
-112 -671 -93 -229 19 -379 69 -545 184 -189 130 -347 346 -423 577 -52 158
-64 244 -64 461 0 234 13 327 70 498 73 218 177 386 333 542 157 156 326 259
545 332 66 22 124 45 128 51 4 7 15 43 24 82 21 88 30 105 54 105 11 0 111
-16 222 -34z m2796 -4951 c75 -18 163 -59 191 -89 17 -18 20 -42 26 -198 9
-210 8 -213 -84 -159 -31 17 -90 49 -131 69 -71 35 -80 37 -175 37 -119 0
-166 -18 -245 -91 -86 -80 -130 -198 -130 -349 0 -163 42 -279 128 -357 60
-53 105 -68 203 -68 91 0 185 20 263 54 32 14 62 26 67 26 5 0 9 -76 9 -169
l0 -170 -52 -24 c-93 -44 -165 -58 -324 -64 -181 -7 -263 8 -382 67 -403 202
-514 780 -227 1185 117 164 310 282 520 316 72 11 269 2 343 -16z m1802 -22
c0 -72 -27 -365 -45 -478 -8 -55 -15 -106 -15 -112 0 -10 44 -13 188 -13 l188
0 12 138 c7 75 18 198 23 272 6 74 14 138 18 142 8 9 377 98 407 98 23 0 24
-4 24 -57 -1 -80 -26 -338 -44 -458 -9 -55 -34 -291 -56 -525 -22 -233 -44
-428 -49 -433 -9 -9 -261 -102 -323 -118 -72 -20 -78 -13 -78 89 0 48 9 175
20 282 11 107 20 202 20 212 0 17 -14 18 -189 18 l-189 0 -6 -37 c-3 -21 -13
-125 -23 -231 -9 -106 -22 -200 -27 -208 -16 -21 -335 -135 -371 -132 -28 3
-30 6 -33 51 -3 44 17 332 34 495 l7 62 -70 0 c-112 0 -112 4 1 175 l96 145
15 152 c7 84 19 212 25 283 6 72 14 133 18 137 11 11 353 96 390 97 32 1 32 1
32 -46z"/>
<path d="M6575 8929 c-195 -19 -569 -78 -657 -105 -16 -5 -298 -489 -298 -512
0 -7 6 -15 13 -18 14 -5 157 15 287 40 41 8 77 13 79 10 4 -4 -5 -147 -44
-654 -14 -173 -34 -452 -45 -620 -11 -168 -27 -377 -35 -465 -9 -88 -15 -203
-13 -255 3 -90 4 -95 28 -107 34 -16 80 -4 335 86 241 86 322 120 328 135 3 6
24 234 48 506 l44 494 56 -120 c32 -65 156 -328 278 -583 121 -255 229 -473
238 -484 28 -31 76 -48 109 -38 16 5 99 42 184 84 85 41 230 109 322 152 165
77 237 122 225 142 -3 5 -40 13 -82 16 -42 4 -88 13 -104 22 -36 18 -135 170
-294 450 -65 116 -150 263 -188 329 -38 65 -69 122 -69 126 0 4 23 17 50 28
141 59 337 222 421 350 73 112 91 167 97 303 5 137 -18 249 -69 333 -123 199
-292 294 -619 347 -125 20 -449 24 -625 8z m450 -494 c182 -47 235 -236 123
-434 -82 -145 -280 -287 -427 -307 l-51 -7 1 34 c1 72 65 698 72 705 24 25
199 30 282 9z"/>
<path d="M2730 4129 c-457 -23 -756 -41 -762 -47 -11 -12 -118 -302 -118 -322
0 -19 9 -20 182 -22 l182 -3 -3 -70 c-1 -38 -6 -119 -12 -180 -20 -233 -58
-764 -61 -850 l-3 -90 27 -3 c33 -4 358 111 373 132 8 10 107 1002 105 1049 0
4 69 7 154 7 132 0 157 2 175 18 22 19 155 368 145 383 -6 10 -158 10 -384 -2z"/>
<path d="M4875 4124 c-82 -7 -270 -13 -417 -13 l-266 -1 -92 -150 c-50 -83
-90 -158 -88 -168 3 -14 17 -17 86 -20 73 -2 82 -5 78 -20 -2 -9 -8 -71 -11
-137 -11 -192 -13 -199 -88 -301 -37 -50 -67 -97 -67 -103 0 -15 43 -31 86
-31 40 0 38 18 22 -195 l-11 -160 -58 -98 c-32 -54 -56 -104 -53 -111 3 -9 29
-16 67 -20 182 -19 327 -27 554 -33 l252 -6 28 30 c46 50 153 230 153 258 l0
25 -265 0 c-146 0 -265 4 -265 8 0 15 20 226 26 270 l5 42 112 0 c62 0 117 4
124 8 19 12 125 253 127 287 l1 30 -168 -1 -169 -1 6 27 c2 15 8 73 12 129 6
92 9 103 28 110 12 5 109 11 216 15 107 4 200 11 206 17 13 11 111 254 114
284 5 43 2 45 -67 44 -38 -1 -135 -8 -218 -15z"/>
<path d="M3741 8349 c-29 -5 -81 -24 -115 -42 -70 -36 -183 -145 -238 -229
-77 -114 -119 -302 -119 -523 -1 -381 130 -623 371 -688 71 -19 167 -30 174
-18 3 4 -9 26 -27 47 -74 88 -83 116 -44 151 28 27 421 223 445 223 10 0 33
-16 52 -35 19 -19 37 -35 40 -35 11 0 49 131 67 230 12 65 17 147 18 260 0
185 -11 243 -69 365 -97 206 -337 333 -555 294z"/>
</g>
</svg>
